#!OML:ASF F:\VICON\USERDATA\INSTALL\rory3\rory3.ASF
:FULLY-SPECIFIED
:DEGREES
862
root -2.4377 29.7963 -10.8079 1.39341 -20.057 0.973149
lowerback 6.4485 1.66892 -0.327778
upperback 0.88934 2.15978 -1.15295
thorax -2.66356 1.07174 -1.18925
lowerneck -7.46604 2.17848 -4.76387
upperneck 32.2621 2.6731 4.10938
head 11.5841 1.06318 2.66743
rclavicle 3.59303e-014 -1.51076e-014
rhumerus -31.4614 0.387262 -76.5574
rradius 29.5969
rwrist 13.4738
rhand -27.1431 4.68069
rfingers 7.12502
rthumb -0.558338 -25.2983
lclavicle 3.59303e-014 -1.51076e-014
lhumerus -44.3177 40.5942 54.4164
lradius 10.5627
lwrist -29.9202
lhand -25.3614 21.2528
lfingers 7.12502
lthumb 1.16249 51.2293
rfemur -8.56893 14.7091 23.3776
rtibia 28.0259
rfoot -21.4794 -17.1998
rtoes 8.18755
lfemur -19.6585 12.7142 -22.4811
ltibia 33.7062
lfoot -16.3098 16.6986
ltoes 6.45316
863
root -2.43685 29.7928 -10.7829 1.46222 -19.7322 0.873466
lowerback 6.3032 1.71486 -0.205727
upperback 0.88299 2.23204 -1.12211
thorax -2.58428 1.10718 -1.22703
lowerneck -7.60672 1.98966 -5.2592
upperneck 32.2543 2.48204 4.21563
head 11.6115 0.933589 2.77578
rclavicle -2.43511e-015 1.98785e-015
rhumerus -31.5709 0.451269 -76.6222
rradius 29.6405
rwrist 13.4816
rhand -27.0554 4.72161
rfingers 7.12502
rthumb -0.473595 -25.2576
lclavicle -2.43511e-015 1.98785e-015
lhumerus -45.1144 41.0634 53.5642
lradius 10.4628
lwrist -30.1661
lhand -25.314 21.2273
lfingers 7.12502
lthumb 1.20826 51.2036
rfemur -8.49822 14.6193 23.4884
rtibia 28.0305
rfoot -21.6306 -17.4282
rtoes 8.21149
lfemur -19.3536 12.1362 -22.3517
ltibia 33.212
lfoot -16.3029 16.9187
ltoes 6.75743
864
root -2.4356 29.7908 -10.7658 1.56942 -19.3058 0.778124
lowerback 6.22288 1.76858 -0.112073
upperback 0.866887 2.31166 -1.09117
thorax -2.55211 1.14635 -1.25169
lowerneck -7.67911 2.20461 -4.46127
upperneck 32.2848 2.76415 3.82646
head 11.6443 1.11216 2.52583
rclavicle -4.32357e-014 1.41137e-014
rhumerus -31.6562 0.456902 -76.6428
rradius 29.6362
rwrist 13.3296
rhand -27.1818 4.86833
rfingers 7.12502
rthumb -0.595703 -25.1106
lclavicle -4.32357e-014 1.41137e-014
lhumerus -45.4618 40.9838 53.3678
lradius 10.5351
lwrist -29.6265
lhand -25.068 21.2843
lfingers 7.12502
lthumb 1.44591 51.2591
rfemur -8.52562 14.5389 23.6043
rtibia 28.1014
rfoot -21.7983 -17.7268
rtoes 8.262
lfemur -19.1142 11.4107 -22.2113
ltibia 32.6883
lfoot -16.3988 17.091
ltoes 7.72419
865
root -2.43407 29.7889 -10.7463 1.60675 -18.8117 0.987543
lowerback 6.11421 1.80689 -0.303997
upperback 0.837928 2.34879 -1.16046
thorax -2.52535 1.16649 -1.2153
lowerneck -7.71099 2.16048 -4.52784
upperneck 32.2525 2.67107 3.9947
head 11.6374 1.08595 2.58999
rclavicle -3.07868e-014 1.31198e-014
rhumerus -31.8531 0.443956 -76.7115
rradius 29.7456
rwrist 13.2355
rhand -27.2869 4.88642
rfingers 7.12502
rthumb -0.697165 -25.0922
lclavicle -3.07868e-014 1.31198e-014
lhumerus -45.7481 40.7724 53.2835
lradius 10.6725
lwrist -29.0365
lhand -24.9173 21.2878
lfingers 7.12502
lthumb 1.59145 51.2616
rfemur -8.55311 14.4138 23.3884
rtibia 28.1557
rfoot -22.1219 -17.9627
rtoes 8.69404
lfemur -18.9238 10.6853 -22.4249
ltibia 32.2247
lfoot -16.5311 17.1221
ltoes 8.27133
866
root -2.43359 29.7831 -10.7228 1.65618 -18.388 1.24277
lowerback 5.9123 1.82323 -0.60175
upperback 0.800531 2.35205 -1.21016
thorax -2.46095 1.17091 -1.09356
lowerneck -7.83811 1.98192 -5.01834
upperneck 32.2455 2.48668 4.12275
head 11.661 0.962334 2.70579
rclavicle 2.36057e-015 -1.25234e-014
rhumerus -32.0122 0.583852 -76.8338
rradius 29.7799
rwrist 13.2398
rhand -27.0941 5.20523
rfingers 7.12502
rthumb -0.511021 -24.7739
lclavicle 2.36057e-015 -1.25234e-014
lhumerus -46.1637 40.7534 53.0697
lradius 10.7814
lwrist -28.4132
lhand -24.866 21.3974
lfingers 7.12502
lthumb 1.64101 51.3708
rfemur -8.60096 14.2814 23.1096
rtibia 28.1946
rfoot -22.2831 -18.2049
rtoes 8.76904
lfemur -18.7914 10.1173 -22.7262
ltibia 31.8719
lfoot -16.6347 17.0572
ltoes 8.67495
867
root -2.4311 29.7759 -10.701 1.70941 -18.0419 0.896104
lowerback 5.90816 1.83898 -0.297931
upperback 0.803388 2.39561 -1.11133
thorax -2.44686 1.19046 -1.16507
lowerneck -8.12898 1.92381 -5.27893
upperneck 32.5007 2.42504 4.29178
head 11.8197 0.921594 2.82275
rclavicle -1.16538e-014 3.77691e-015
rhumerus -32.1179 0.744148 -76.9752
rradius 29.7592
rwrist 13.1133
rhand -26.8905 5.34707
rfingers 7.12502
rthumb -0.314333 -24.6324
lclavicle -1.16538e-014 3.77691e-015
lhumerus -46.5231 40.7073 52.9109
lradius 10.9529
lwrist -27.3241
lhand -24.7664 21.721
lfingers 7.12502
lthumb 1.73721 51.6937
rfemur -8.46053 14.1896 23.5079
rtibia 28.2363
rfoot -22.3725 -18.4806
rtoes 8.4684
lfemur -18.5274 9.64583 -22.3599
ltibia 31.6401
lfoot -16.7841 17.0651
ltoes 8.64096
868
root -2.42715 29.7705 -10.6801 1.76676 -17.7352 0.589651
lowerback 5.92883 1.92044 -0.0281589
upperback 0.807078 2.52356 -1.03352
thorax -2.44428 1.2522 -1.24665
lowerneck -7.90929 1.98936 -4.88863
upperneck 32.1785 2.53748 3.96666
head 11.6519 0.988265 2.63094
rclavicle 5.8393e-015 -2.5842e-015
rhumerus -32.2504 0.807989 -77.0685
rradius 29.7898
rwrist 13.0209
rhand -27.1929 4.9914
rfingers 7.12502
rthumb -0.606393 -24.9875
lclavicle 5.8393e-015 -2.5842e-015
lhumerus -46.4224 40.1326 53.4608
lradius 11.2804
lwrist -25.4674
lhand -24.6906 22.504
lfingers 7.12502
lthumb 1.81043 52.476
rfemur -8.33915 14.1799 23.8535
rtibia 28.2613
rfoot -22.5225 -18.7349
rtoes 8.42991
lfemur -18.3319 9.20577 -22.0468
ltibia 31.5214
lfoot -16.9764 17.1248
ltoes 8.43356
869
root -2.42133 29.7661 -10.659 1.71702 -17.3171 0.710388
lowerback 5.97663 1.98156 -0.170929
upperback 0.78049 2.59454 -1.0557
thorax -2.50226 1.28844 -1.19778
lowerneck -7.93358 1.9195 -5.02271
upperneck 32.3128 2.40569 4.17608
head 11.7112 0.937946 2.72304
rclavicle -5.68276e-014 -1.78906e-015
rhumerus -32.4833 0.966365 -77.1645
rradius 29.8986
rwrist 13.0045
rhand -27.3895 4.77567
rfingers 7.12502
rthumb -0.796287 -25.2026
lclavicle -5.68276e-014 -1.78906e-015
lhumerus -46.1716 39.192 54.4232
lradius 11.7264
lwrist -23.3869
lhand -24.8127 23.0878
lfingers 7.12502
lthumb 1.69245 53.0608
rfemur -8.20559 14.0529 23.7372
rtibia 28.2422
rfoot -22.6817 -18.9269
rtoes 8.42379
lfemur -18.1937 8.7779 -22.2211
ltibia 31.488
lfoot -17.0918 17.0958
ltoes 7.7659
870
root -2.41641 29.7629 -10.6414 1.62573 -16.8167 0.878386
lowerback 6.08562 1.95906 -0.400728
upperback 0.757768 2.54791 -1.0632
thorax -2.59711 1.2669 -1.07824
lowerneck -8.18247 1.94826 -4.84069
upperneck 32.6078 2.48511 3.99058
head 11.8845 0.97001 2.64577
rclavicle -2.73826e-014 1.39149e-014
rhumerus -32.5987 1.22357 -77.2714
rradius 29.9083
rwrist 13.349
rhand -27.0514 4.7208
rfingers 7.12502
rthumb -0.469712 -25.2584
lclavicle -2.73826e-014 1.39149e-014
lhumerus -46.3967 38.8203 54.7539
lradius 12.1786
lwrist -22.1037
lhand -24.9533 22.7931
lfingers 7.12502
lthumb 1.55667 52.7671
rfemur -8.04325 13.9248 23.6003
rtibia 28.2528
rfoot -22.8773 -19.2273
rtoes 8.16295
lfemur -18.0529 8.32523 -22.4282
ltibia 31.4356
lfoot -17.0754 16.941
ltoes 7.50298
871
root -2.41187 29.762 -10.6238 1.601 -16.3254 0.922764
lowerback 6.11055 1.95417 -0.491661
upperback 0.792357 2.53538 -1.06147
thorax -2.57961 1.26158 -1.02473
lowerneck -8.40809 1.95567 -4.7216
upperneck 32.7155 2.51712 3.90151
head 11.9773 0.988741 2.60379
rclavicle -7.45443e-016 0
rhumerus -32.5889 1.26174 -77.3153
rradius 29.923
rwrist 13.8788
rhand -26.2834 4.35577
rfingers 7.12502
rthumb 0.271999 -25.6238
lclavicle -7.45443e-016 0
lhumerus -46.2606 38.1933 55.4955
lradius 12.6592
lwrist -20.1925
lhand -25.4059 22.4616
lfingers 7.12502
lthumb 1.11956 52.4384
rfemur -7.93338 13.8256 23.5979
rtibia 28.2871
rfoot -22.9904 -19.6124
rtoes 7.8283
lfemur -17.9761 7.84739 -22.4971
ltibia 31.3617
lfoot -17.0618 16.8136
ltoes 7.4549
872
root -2.40911 29.7628 -10.605 1.58537 -15.8893 0.925781
lowerback 6.12191 2.00096 -0.576702
upperback 0.794484 2.5914 -1.07887
thorax -2.58602 1.29021 -1.00009
lowerneck -8.2845 1.95995 -4.51297
upperneck 32.6092 2.4998 3.83694
head 11.9139 1.00238 2.53545
rclavicle 5.04416e-015 -1.59028e-014
rhumerus -32.7097 1.16766 -77.434
rradius 29.8185
rwrist 13.8212
rhand -26.2132 4.68632
rfingers 7.12502
rthumb 0.339789 -25.2932
lclavicle 5.04416e-015 -1.59028e-014
lhumerus -46.0171 37.3752 56.2906
lradius 13.1115
lwrist -18.0378
lhand -25.9067 22.2176
lfingers 7.12502
lthumb 0.635824 52.1964
rfemur -7.81386 13.7875 23.6321
rtibia 28.302
rfoot -23.1779 -19.9145
rtoes 7.90214
lfemur -17.9203 7.38519 -22.5109
ltibia 31.308
lfoot -17.0702 16.7281
ltoes 7.80681
